<?xml version="1.0" standalone="no"?>
<!DOCTYPE svg PUBLIC "-//W3C//DTD SVG 20010904//EN"
 "http://www.w3.org/TR/2001/REC-SVG-20010904/DTD/svg10.dtd">
<svg version="1.0" xmlns="http://www.w3.org/2000/svg"
 width="300.000000pt" height="375.000000pt" viewBox="0 0 300.000000 375.000000"
 preserveAspectRatio="xMidYMid meet">
<metadata>
Created by potrace 1.10, written by Peter Selinger 2001-2011
</metadata>
<g transform="translate(0.000000,375.000000) scale(0.100000,-0.100000)"
fill="#000000" stroke="none">
<path d="M1486 2875 c-31 -58 -56 -108 -56 -111 0 -2 11 -4 25 -4 17 0 29 8
37 25 8 19 19 25 42 25 51 0 76 -11 82 -36 4 -17 13 -24 29 -24 13 0 35 -4 48
-9 23 -9 26 -7 43 41 23 62 46 80 71 55 15 -15 16 -23 5 -61 -6 -25 -13 -50
-14 -56 -2 -7 7 -16 19 -20 20 -8 23 -4 37 45 9 29 16 64 16 77 0 33 -29 58
-68 58 -18 0 -32 2 -32 4 0 1 5 18 11 36 9 26 9 34 -2 41 -29 18 -37 6 -69
-98 -18 -60 -35 -103 -37 -98 -2 6 -21 55 -41 110 -33 89 -40 100 -63 103 -24
3 -31 -6 -83 -103z m103 -22 c1 -13 -50 -19 -61 -8 -3 3 4 24 15 47 l21 41 12
-34 c7 -19 13 -40 13 -46z"/>
<path d="M1128 2859 c-10 -6 -18 -17 -18 -26 0 -12 -3 -14 -11 -6 -9 9 -49 7
-49 -2 0 -12 71 -155 77 -155 5 0 15 4 23 10 12 8 12 14 -3 45 -22 45 -22 81
0 94 13 7 15 14 7 29 -7 16 -13 19 -26 11z"/>
<path d="M1906 2764 c-44 -62 -47 -68 -31 -83 15 -15 18 -14 36 9 49 60 61 71
76 68 37 -7 38 -34 1 -85 -35 -49 -35 -50 -15 -63 18 -11 23 -9 39 13 46 63
54 70 75 63 34 -11 33 -31 -3 -84 -34 -51 -34 -51 -13 -63 12 -6 24 -7 28 -3
31 43 71 111 71 121 0 22 -47 63 -73 63 -16 0 -28 9 -35 25 -7 14 -24 31 -39
37 -16 7 -34 21 -41 30 -7 10 -17 18 -21 18 -4 0 -29 -30 -55 -66z"/>
<path d="M1301 2786 c-15 -18 -4 -46 19 -46 28 0 45 27 30 45 -16 19 -34 19
-49 1z"/>
<path d="M939 2755 c-14 -8 -32 -29 -39 -46 -26 -61 37 -132 102 -116 31 8 78
51 78 72 0 23 -26 18 -54 -10 -14 -14 -32 -25 -40 -25 -32 0 -23 19 24 51 27
19 50 37 50 41 0 4 -10 16 -22 28 -25 23 -62 25 -99 5z m64 -32 c9 -8 -54 -54
-65 -47 -8 5 -4 17 15 42 10 13 39 16 50 5z"/>
<path d="M786 2619 c-14 -11 -26 -29 -26 -40 0 -11 -4 -18 -9 -15 -4 3 -16 -3
-25 -13 -15 -17 -11 -22 71 -94 83 -73 88 -76 106 -59 18 16 17 17 -14 43 -32
26 -32 27 -11 33 24 8 52 53 52 85 0 11 -14 33 -31 50 -36 37 -75 40 -113 10z
m82 -41 c17 -17 15 -53 -3 -68 -38 -31 -96 27 -65 65 15 18 51 20 68 3z"/>
<path d="M2205 2593 c-4 -12 2 -23 19 -36 16 -11 26 -28 26 -43 0 -31 -13 -31
-34 1 -10 14 -28 31 -41 37 -20 9 -29 8 -45 -7 -11 -10 -20 -28 -20 -40 0 -22
33 -65 51 -65 6 0 8 -3 5 -8 -2 -4 2 -16 10 -26 13 -18 16 -17 69 28 63 55 69
78 29 125 -37 44 -60 55 -69 34z m-7 -95 c18 -18 15 -38 -6 -38 -21 0 -42 18
-42 37 0 16 32 17 48 1z"/>
<path d="M667 2449 c-21 -12 -47 -61 -47 -88 0 -11 12 -33 26 -50 54 -65 154
-22 154 65 0 65 -75 106 -133 73z m71 -45 c27 -19 28 -45 3 -68 -21 -19 -64
-9 -75 19 -9 26 14 60 44 64 3 1 16 -6 28 -15z"/>
<path d="M2273 2414 c-54 -27 -68 -108 -23 -136 10 -7 16 -17 13 -24 -2 -7 -1
-19 4 -27 7 -12 26 -6 111 33 57 26 104 49 104 51 1 2 -1 15 -5 28 l-6 24 -36
-22 c-20 -11 -37 -21 -38 -21 -1 0 -2 14 -3 31 -2 59 -64 91 -121 63z m68 -44
c22 -13 25 -52 5 -69 -8 -7 -27 -11 -43 -9 -23 2 -29 9 -31 33 -3 19 2 33 14
42 22 16 30 16 55 3z"/>
<path d="M507 2279 c-3 -11 0 -22 6 -25 7 -2 58 -19 115 -38 80 -27 102 -32
104 -20 0 8 1 19 2 24 1 10 -183 80 -210 80 -6 0 -14 -9 -17 -21z"/>
<path d="M572 2173 c-17 -7 -42 -57 -42 -86 0 -34 34 -74 69 -82 65 -14 122
53 106 125 -10 46 -43 31 -37 -17 4 -27 -14 -63 -32 -63 -10 0 -11 12 -1 65
l13 65 -32 -1 c-17 0 -37 -3 -44 -6z m34 -64 c-3 -17 -6 -38 -6 -46 0 -13 -3
-13 -15 -3 -18 15 -20 51 -3 68 21 21 31 13 24 -19z"/>
<path d="M2450 2110 c-51 -39 -73 -50 -102 -50 -35 0 -38 -2 -38 -29 0 -28 1
-28 43 -24 36 4 56 -1 115 -31 l72 -36 0 26 c0 21 -8 29 -50 47 -27 11 -50 24
-50 27 0 4 20 21 45 39 47 34 48 35 37 63 -6 14 -17 9 -72 -32z"/>
<path d="M520 1967 c0 -20 9 -27 62 -43 l62 -18 -61 -28 c-53 -25 -60 -31 -56
-52 l5 -24 82 39 c69 34 81 43 78 62 -2 12 -7 25 -10 28 -7 6 -148 59 -158 59
-2 0 -4 -11 -4 -23z"/>
<path d="M2325 1910 c-12 -13 -16 -30 -13 -55 2 -19 0 -35 -4 -35 -4 0 -8 -11
-8 -24 0 -22 5 -25 59 -31 73 -8 95 -2 109 31 13 28 16 100 5 107 -21 12 -38
-10 -38 -48 0 -29 -4 -41 -17 -43 -14 -3 -15 3 -11 38 9 67 -42 105 -82 60z
m55 -66 c0 -28 -3 -35 -17 -32 -31 6 -29 68 2 68 11 0 15 -10 15 -36z"/>
<path d="M573 1774 c-21 -21 -25 -32 -20 -66 3 -22 13 -48 22 -58 41 -45 121
-29 145 29 21 51 -22 143 -53 112 -8 -8 -7 -18 7 -41 17 -29 15 -70 -4 -70 -9
0 -11 6 -30 78 -13 49 -30 53 -67 16z m54 -64 c8 -30 7 -40 -1 -40 -28 0 -49
54 -29 73 13 13 19 6 30 -33z"/>
<path d="M2281 1727 c-8 -19 -4 -24 23 -35 68 -27 81 -37 78 -64 -2 -19 3 -27
18 -31 25 -6 34 7 26 39 -4 16 -3 23 3 20 9 -6 28 32 19 38 -1 2 -38 15 -81
29 l-78 26 -8 -22z"/>
<path d="M643 1582 c-96 -53 -100 -57 -90 -79 l10 -23 32 20 c41 25 45 25 45
-3 0 -58 64 -91 119 -63 55 29 68 90 28 130 -13 13 -22 27 -20 32 2 6 -2 17
-9 26 -12 14 -24 10 -115 -40z m117 -42 c20 -37 -20 -78 -61 -65 -24 8 -35 50
-19 70 18 22 67 19 80 -5z"/>
<path d="M2246 1609 c-18 -14 -26 -30 -26 -50 0 -17 -4 -28 -8 -25 -4 2 -13
-4 -20 -15 -11 -17 -6 -22 49 -50 39 -19 70 -28 84 -25 28 7 55 47 62 92 5 30
3 34 -16 34 -15 0 -21 -6 -21 -21 0 -32 -19 -59 -41 -59 -19 0 -19 0 1 40 26
50 25 65 -2 84 -29 20 -30 20 -62 -5z m44 -47 c0 -10 -6 -26 -13 -36 -12 -16
-14 -16 -26 -3 -9 12 -10 21 -1 36 13 26 40 28 40 3z"/>
<path d="M2128 1428 c-16 -18 -39 -43 -51 -55 -11 -12 -19 -24 -16 -26 2 -1
41 -36 87 -76 79 -71 83 -73 101 -56 19 16 19 17 -12 45 -30 27 -31 28 -9 34
23 8 52 53 52 82 0 9 -15 31 -34 50 -44 44 -78 45 -118 2z m84 -35 c22 -19 23
-46 4 -63 -21 -16 -56 -9 -72 15 -12 18 -11 24 2 43 18 26 41 28 66 5z"/>
<path d="M835 1356 c-48 -48 -38 -111 23 -142 21 -10 21 -10 -5 -37 -22 -22
-24 -28 -13 -41 7 -9 18 -16 24 -15 6 0 44 38 85 85 62 71 71 86 61 100 -7 8
-19 13 -27 10 -7 -3 -13 1 -13 9 0 8 -10 23 -22 35 -30 28 -83 26 -113 -4z
m95 -36 c11 -11 20 -24 20 -30 0 -15 -38 -50 -54 -50 -19 0 -46 27 -46 46 0
16 35 54 50 54 6 0 19 -9 30 -20z"/>
<path d="M1967 1281 c-14 -17 -27 -27 -31 -24 -3 3 -12 0 -20 -6 -13 -11 -9
-22 31 -82 25 -38 49 -69 52 -69 3 0 14 7 23 14 16 12 15 16 -13 54 -37 51
-36 86 2 90 22 3 31 -5 55 -42 32 -51 32 -51 58 -31 18 13 17 16 -15 57 -43
57 -58 68 -90 68 -18 0 -36 -10 -52 -29z"/>
<path d="M1030 1253 c0 -17 16 -30 42 -37 26 -6 56 -42 44 -53 -3 -3 -31 9
-62 27 -63 35 -74 31 -74 -26 0 -60 72 -102 135 -78 19 8 45 55 45 85 0 33
-62 89 -99 89 -17 0 -31 -3 -31 -7z m39 -102 c33 -17 33 -19 14 -29 -23 -13
-63 9 -63 34 0 18 7 17 49 -5z"/>
<path d="M1828 1208 c-16 -5 -28 -14 -28 -20 0 -6 -6 -8 -14 -5 -8 3 -21 0
-30 -6 -16 -11 -15 -16 5 -62 28 -64 46 -85 76 -85 47 0 110 45 92 66 -8 10
-17 8 -45 -8 -28 -17 -37 -18 -50 -7 -13 11 -10 15 28 33 52 25 64 64 26 90
-25 18 -23 18 -60 4z m39 -45 c6 -16 -54 -47 -62 -32 -9 14 25 50 44 47 8 -2
16 -8 18 -15z"/>
<path d="M1187 1073 c-52 -94 -56 -112 -20 -113 6 0 29 32 51 72 l40 72 6 -34
c3 -19 7 -55 10 -79 4 -41 17 -60 41 -61 6 0 28 33 50 73 l39 72 8 -40 c4 -22
7 -59 7 -81 1 -37 4 -43 27 -48 15 -4 28 -6 30 -4 1 2 -4 51 -11 108 -8 58
-15 111 -15 118 0 7 -13 12 -30 12 -27 0 -33 -7 -62 -65 -18 -36 -35 -65 -39
-65 -3 0 -9 32 -13 71 -8 84 -10 89 -41 89 -19 0 -33 -17 -78 -97z"/>
<path d="M1592 1133 c-13 -26 -4 -43 24 -43 29 0 41 24 24 45 -17 20 -37 19
-48 -2z"/>
</g>
</svg>
